# xmcd
#
# Track frame offsets:
#	150
#	39633
#	71928
#	103418
#	146553
#	192043
#	231035
#	268868
#	298430
#
# Disc length: 4328 seconds
#
# Revision: 5
# Processed by: cddbd v1.5.2PL0 Copyright (c) Steve Scherf et al.
# Submitted via: audiograbber 1.83.01
#
DISCID=9610e609
DTITLE=Emmy Verhey, Concertgebouw Chamber Orchestra, Eduardo Marturet - Mozart 
DTITLE=Violin Concerto 4 D, 5 A, Adagio E, Rondo B flat,  Rondo C
DYEAR=1989
DGENRE=Classical
TTITLE0=Violin Concerto 4 D major K218 - 1 Allegro Moderato
TTITLE1=Violin Concerto 4 D major K218 - 2 Andante Cantabile
TTITLE2=Violin Concerto 4 D major K218 - 3 Rondeau
TTITLE3=Violin Concerto 5 A major K219 - 1 Allegro Aperto
TTITLE4=Violin Concerto 5 A  major K219 - 2 Adagio
TTITLE5=Violin Concerto 5 A  major K219 - 3 Rondeau
TTITLE6=Violin Concerto - Adagio in E Major KV 261
TTITLE7=Violin Concerto - Rondo in B Flat Major KV 269
TTITLE8=Violin Concerto - Rondo in C Major KV 373
EXTD=Emmy Verhey - Violin\nConcertgebouw Chamber Orchestra - Eduardo Marturet
EXTT0=
EXTT1=
EXTT2=
EXTT3=
EXTT4=
EXTT5=
EXTT6=
EXTT7=
EXTT8=
PLAYORDER=
